<?xml version="1.0" encoding="UTF-8" standalone="no"?>
<svg
   class="flowerStar_fa5ad8"
   aria-hidden="true"
   role="img"
   width="16"
   height="15.253761"
   viewBox="0 0 16 14.491073"
   version="1.1"
   id="svg1"
   sodipodi:docname="icon.svg"
   xml:space="preserve"
   xmlns:inkscape="http://www.inkscape.org/namespaces/inkscape"
   xmlns:sodipodi="http://sodipodi.sourceforge.net/DTD/sodipodi-0.dtd"
   xmlns="http://www.w3.org/2000/svg"
   xmlns:svg="http://www.w3.org/2000/svg"><defs
     id="defs1" /><sodipodi:namedview
     id="namedview1"
     pagecolor="#505050"
     bordercolor="#eeeeee"
     borderopacity="1"
     inkscape:showpageshadow="0"
     inkscape:pageopacity="0"
     inkscape:pagecheckerboard="0"
     inkscape:deskcolor="#505050" /><path
     fill="var(--white-400)"
     fill-rule="evenodd"
     d="m 16,7.2452838 c 0,0.79 -1.28,1.38 -1.52,2.09 -0.24,0.7100002 0.44,2.0000002 0,2.5900002 -0.44,0.59 -1.84,0.35 -2.46,0.8 -0.62,0.45 -0.79,1.84 -1.54,2.09 -0.75,0.25 -1.67,-0.8 -2.47,-0.8 -0.8,0 -1.75,1 -2.47,0.8 -0.72,-0.2 -0.92,-1.64 -1.54,-2.09 -0.62,-0.45 -2,-0.18 -2.46,-0.8 -0.46,-0.62 0.23,-1.84 0,-2.5900002 -0.23,-0.75 -1.54,-1.3 -1.54,-2.09 0,-0.79 1.28,-1.38 1.52,-2.09 0.24,-0.71 -0.44,-2 0,-2.59 0.44,-0.59 1.85,-0.35 2.48,-0.8 0.63,-0.45 0.78,-1.83999995 1.53,-2.11999995 0.75,-0.28 1.67,0.83 2.47,0.83 0.8,0 1.75,-1 2.47,-0.8 0.72,0.2 0.91,1.63999995 1.53,2.08999995 0.62,0.45 2,0.18 2.46,0.8 0.46,0.62 -0.23,1.84 0,2.59 0.23,0.75 1.54,1.3 1.54,2.09 z"
     id="path1"
     style="fill:#ffffff;fill-opacity:1"
     inkscape:export-filename="path1.png"
     inkscape:export-xdpi="96"
     inkscape:export-ydpi="96" /><path
     fill="#000000"
     d="M 3.0386768,5.5075786 7.3694985,2.1690212 a 1.0336091,1.0336091 0 0 1 1.2610035,0 l 4.335989,3.3333894 a 1.0336091,1.0336091 0 0 1 -0.408275,1.8294882 l -0.165378,0.036177 -0.423779,4.2377982 a 1.0336091,1.0336091 0 0 1 -1.028441,0.930249 h -0.8734 A 0.51680455,0.51680455 0 0 1 9.5504145,12.019318 V 9.4352932 a 1.5504137,1.5504137 0 0 0 -3.1008273,0 v 2.5840248 a 0.51680455,0.51680455 0 0 1 -0.516805,0.516803 H 5.0593826 A 1.0336091,1.0336091 0 0 1 4.0309415,11.605873 L 3.6071618,7.368075 3.4417844,7.3318988 A 1.0336091,1.0336091 0 0 1 3.0335087,5.5024106 Z"
     class=""
     id="path1-3"
     style="fill:#000000;fill-opacity:1;stroke-width:0.516805" /></svg>
